<svg xmlns="http://www.w3.org/2000/svg" viewBox="0 0 256 256"><rect width="256" height="256" rx="32" fill="#F7DF1E"/><path d="M116 200l-14-8c2 6 5 11 9 14 4 4 9 6 16 6 7 0 12-2 16-6 4-3 6-8 6-14 0-6-2-10-5-13-3-2-8-5-16-8-8-3-14-6-18-10-5-4-7-10-7-18 0-9 3-16 9-21 6-5 14-8 24-8s17 2 23 7c6 5 10 12 11 22h-18c-1-5-3-9-6-11-3-3-7-4-12-4s-9 1-12 4c-3 2-4 6-4 10 0 4 1 8 4 10 2 3 7 5 14 8 9 3 16 7 20 11 5 5 7 11 7 19 0 10-3 18-9 23-6 6-15 9-26 9-11 0-20-3-27-9-7-6-11-14-13-24l18 0zM168 200V60h18v140h-18z" fill="#000"/></svg>
