<svg xmlns="http://www.w3.org/2000/svg" viewBox="0 0 256 154"><path fill="#38BDF8" d="M128 0c-34.1 0-55.2 17-63.3 51 12.7-17 27.8-23.7 45.3-20 9.85 2.05 16.9 8.73 24.8 16.7 12.78 12.9 27.62 27.7 60.2 27.7 34.1 0 55.2-17 63.3-51-12.7 17-27.8 23.7-45.3 20-9.85-2.05-16.9-8.73-24.8-16.7C175.4 14.8 160.6 0 128 0Zm-64 77c-34.1 0-55.2 17-63.3 51 12.7-17 27.8-23.7 45.3-20 9.85 2.05 16.9 8.73 24.8 16.7 12.78 12.9 27.62 27.7 60.2 27.7 34.1 0 55.2-17 63.3-51-12.7 17-27.8 23.7-45.3 20-9.85-2.05-16.9-8.73-24.8-16.7C111.4 91.8 96.6 77 64 77Z"/></svg>
